<svg width="400" height="400" viewBox="0 0 400 400" xmlns="http://www.w3.org/2000/svg">
  <defs>
    <filter id="starGlow">
      <feGaussianBlur stdDeviation="1" result="coloredBlur"/>
      <feMerge> 
        <feMergeNode in="coloredBlur"/>
        <feMergeNode in="SourceGraphic"/>
      </feMerge>
    </filter>
  </defs>
  
  <!-- Transparent background -->
  <rect width="400" height="400" fill="transparent"/>
  
  <!-- Stars pattern -->
  <g fill="white" filter="url(#starGlow)">
    <!-- Large bright stars -->
    <circle cx="50" cy="50" r="2" opacity="0.9"/>
    <circle cx="150" cy="80" r="1.5" opacity="0.8"/>
    <circle cx="250" cy="60" r="2" opacity="0.9"/>
    <circle cx="350" cy="90" r="1.5" opacity="0.7"/>
    
    <circle cx="80" cy="150" r="1.5" opacity="0.8"/>
    <circle cx="180" cy="120" r="2" opacity="0.9"/>
    <circle cx="280" cy="140" r="1.5" opacity="0.8"/>
    <circle cx="380" cy="160" r="1" opacity="0.7"/>
    
    <circle cx="40" cy="220" r="1" opacity="0.8"/>
    <circle cx="140" cy="200" r="1.5" opacity="0.9"/>
    <circle cx="240" cy="180" r="2" opacity="0.8"/>
    <circle cx="340" cy="210" r="1.5" opacity="0.7"/>
    
    <circle cx="70" cy="280" r="1.5" opacity="0.8"/>
    <circle cx="170" cy="260" r="1" opacity="0.7"/>
    <circle cx="270" cy="290" r="1.5" opacity="0.9"/>
    <circle cx="370" cy="270" r="2" opacity="0.8"/>
    
    <circle cx="30" cy="350" r="1" opacity="0.7"/>
    <circle cx="130" cy="330" r="1.5" opacity="0.8"/>
    <circle cx="230" cy="360" r="1" opacity="0.9"/>
    <circle cx="330" cy="340" r="1.5" opacity="0.7"/>
    
    <!-- Medium stars -->
    <circle cx="100" cy="30" r="1" opacity="0.6"/>
    <circle cx="200" cy="40" r="1" opacity="0.7"/>
    <circle cx="300" cy="20" r="1" opacity="0.6"/>
    
    <circle cx="60" cy="100" r="1" opacity="0.7"/>
    <circle cx="160" cy="110" r="1" opacity="0.6"/>
    <circle cx="260" cy="90" r="1" opacity="0.7"/>
    <circle cx="360" cy="120" r="1" opacity="0.6"/>
    
    <circle cx="20" cy="180" r="1" opacity="0.6"/>
    <circle cx="120" cy="170" r="1" opacity="0.7"/>
    <circle cx="220" cy="160" r="1" opacity="0.6"/>
    <circle cx="320" cy="190" r="1" opacity="0.7"/>
    
    <circle cx="90" cy="240" r="1" opacity="0.7"/>
    <circle cx="190" cy="230" r="1" opacity="0.6"/>
    <circle cx="290" cy="250" r="1" opacity="0.7"/>
    <circle cx="390" cy="240" r="1" opacity="0.6"/>
    
    <circle cx="50" cy="310" r="1" opacity="0.6"/>
    <circle cx="150" cy="300" r="1" opacity="0.7"/>
    <circle cx="250" cy="320" r="1" opacity="0.6"/>
    <circle cx="350" cy="310" r="1" opacity="0.7"/>
    
    <circle cx="10" cy="380" r="1" opacity="0.6"/>
    <circle cx="110" cy="370" r="1" opacity="0.7"/>
    <circle cx="210" cy="390" r="1" opacity="0.6"/>
    <circle cx="310" cy="380" r="1" opacity="0.7"/>
    
    <!-- Small stars -->
    <circle cx="75" cy="25" r="0.5" opacity="0.5"/>
    <circle cx="175" cy="35" r="0.5" opacity="0.4"/>
    <circle cx="275" cy="15" r="0.5" opacity="0.5"/>
    <circle cx="375" cy="45" r="0.5" opacity="0.4"/>
    
    <circle cx="25" cy="75" r="0.5" opacity="0.4"/>
    <circle cx="125" cy="85" r="0.5" opacity="0.5"/>
    <circle cx="225" cy="65" r="0.5" opacity="0.4"/>
    <circle cx="325" cy="95" r="0.5" opacity="0.5"/>
    
    <circle cx="95" cy="125" r="0.5" opacity="0.5"/>
    <circle cx="195" cy="135" r="0.5" opacity="0.4"/>
    <circle cx="295" cy="115" r="0.5" opacity="0.5"/>
    <circle cx="395" cy="145" r="0.5" opacity="0.4"/>
    
    <circle cx="45" cy="175" r="0.5" opacity="0.4"/>
    <circle cx="145" cy="185" r="0.5" opacity="0.5"/>
    <circle cx="245" cy="165" r="0.5" opacity="0.4"/>
    <circle cx="345" cy="195" r="0.5" opacity="0.5"/>
    
    <circle cx="15" cy="225" r="0.5" opacity="0.5"/>
    <circle cx="115" cy="235" r="0.5" opacity="0.4"/>
    <circle cx="215" cy="215" r="0.5" opacity="0.5"/>
    <circle cx="315" cy="245" r="0.5" opacity="0.4"/>
    
    <circle cx="85" cy="275" r="0.5" opacity="0.4"/>
    <circle cx="185" cy="285" r="0.5" opacity="0.5"/>
    <circle cx="285" cy="265" r="0.5" opacity="0.4"/>
    <circle cx="385" cy="295" r="0.5" opacity="0.5"/>
    
    <circle cx="35" cy="325" r="0.5" opacity="0.5"/>
    <circle cx="135" cy="335" r="0.5" opacity="0.4"/>
    <circle cx="235" cy="315" r="0.5" opacity="0.5"/>
    <circle cx="335" cy="345" r="0.5" opacity="0.4"/>
    
    <circle cx="5" cy="375" r="0.5" opacity="0.4"/>
    <circle cx="105" cy="385" r="0.5" opacity="0.5"/>
    <circle cx="205" cy="365" r="0.5" opacity="0.4"/>
    <circle cx="305" cy="395" r="0.5" opacity="0.5"/>
  </g>
  
  <!-- Twinkling animation for some stars -->
  <g fill="white">
    <circle cx="150" cy="80" r="1.5">
      <animate attributeName="opacity" values="0.3;1;0.3" dur="3s" repeatCount="indefinite"/>
    </circle>
    <circle cx="280" cy="140" r="1.5">
      <animate attributeName="opacity" values="0.4;1;0.4" dur="4s" repeatCount="indefinite"/>
    </circle>
    <circle cx="240" cy="180" r="2">
      <animate attributeName="opacity" values="0.5;1;0.5" dur="2.5s" repeatCount="indefinite"/>
    </circle>
    <circle cx="370" cy="270" r="2">
      <animate attributeName="opacity" values="0.6;1;0.6" dur="3.5s" repeatCount="indefinite"/>
    </circle>
  </g>
</svg>
